<svg width="428" height="644" viewBox="0 0 428 644" fill="none" xmlns="http://www.w3.org/2000/svg">
<mask id="mask0_299_10" style="mask-type:alpha" maskUnits="userSpaceOnUse" x="0" y="0" width="428" height="644">
<path d="M0 431.729L178.39 643.232L207.795 446.992L323.455 405.563L427.353 187.518L311.693 152.631L278.367 0L0 172.255L160.747 309.623L0 431.729Z" fill="#2051FF"/>
</mask>
<g mask="url(#mask0_299_10)">
<line x1="-8.81641" y1="598.135" x2="436.159" y2="598.135" stroke="#2051FF" stroke-width="10.8921"/>
<line x1="-8.81641" y1="562.889" x2="436.159" y2="562.889" stroke="#2051FF" stroke-width="10.8921"/>
<line x1="-8.81641" y1="527.644" x2="436.159" y2="527.644" stroke="#2051FF" stroke-width="10.8921"/>
<line x1="-8.81641" y1="492.398" x2="436.159" y2="492.398" stroke="#2051FF" stroke-width="10.8921"/>
<line x1="-8.81641" y1="457.153" x2="436.159" y2="457.153" stroke="#2051FF" stroke-width="10.8921"/>
<line x1="-8.81641" y1="421.907" x2="436.159" y2="421.908" stroke="#2051FF" stroke-width="10.8921"/>
<line x1="-8.81641" y1="386.661" x2="436.159" y2="386.661" stroke="#2051FF" stroke-width="10.8921"/>
<line x1="-8.81641" y1="351.415" x2="436.159" y2="351.415" stroke="#2051FF" stroke-width="10.8921"/>
<line x1="-8.81641" y1="316.17" x2="436.159" y2="316.17" stroke="#2051FF" stroke-width="10.8921"/>
<line x1="-8.81641" y1="280.925" x2="436.159" y2="280.925" stroke="#2051FF" stroke-width="10.8921"/>
<line x1="-8.81641" y1="245.679" x2="436.159" y2="245.679" stroke="#2051FF" stroke-width="10.8921"/>
<line x1="-8.81641" y1="210.434" x2="436.159" y2="210.434" stroke="#2051FF" stroke-width="10.8921"/>
<line x1="-8.81641" y1="175.188" x2="436.159" y2="175.188" stroke="#2051FF" stroke-width="10.8921"/>
<line x1="-8.81641" y1="139.943" x2="436.159" y2="139.943" stroke="#2051FF" stroke-width="10.8921"/>
<line x1="-8.81641" y1="104.698" x2="436.159" y2="104.698" stroke="#2051FF" stroke-width="10.8921"/>
<line x1="-8.81641" y1="69.4514" x2="436.159" y2="69.4514" stroke="#2051FF" stroke-width="10.8921"/>
<line x1="-8.81641" y1="34.2053" x2="436.159" y2="34.2053" stroke="#2051FF" stroke-width="10.8921"/>
</g>
</svg>
