<svg  viewBox="0 0 533 184" fill="none" xmlns="http://www.w3.org/2000/svg">
<path fill-rule="evenodd" clip-rule="evenodd" d="M0 129V23H28.3008H96.3867V26.9541H28.3008V60.5869H55.166C66.7188 60.5869 76.6309 62.5352 84.9023 66.4316C93.1738 70.2598 99.4971 75.626 103.872 82.5303C108.315 89.4346 110.537 97.5352 110.537 106.832C110.537 113.805 109.272 120.162 106.743 125.904C106.29 126.962 105.797 127.994 105.265 129H69.2585C69.6634 128.799 70.0587 128.587 70.4443 128.365C74.4775 126.041 77.4854 122.965 79.4678 119.137C81.4502 115.309 82.4414 111.139 82.4414 106.627C82.4414 102.184 81.4502 98.1504 79.4678 94.5273C77.4854 90.9043 74.4775 88.0332 70.4443 85.9141C66.4111 83.7949 61.3184 82.7354 55.166 82.7354H28.3008V129H0ZM527.111 129C527.643 127.994 528.136 126.962 528.589 125.904C531.118 120.162 532.383 113.805 532.383 106.832C532.383 97.5352 530.161 89.4346 525.718 82.5303C521.343 75.626 515.02 70.2598 506.748 66.4316C498.477 62.5352 488.564 60.5869 477.012 60.5869H450.146V23H421.846V129H450.146V82.7354H477.012C483.164 82.7354 488.257 83.7949 492.29 85.9141C496.323 88.0332 499.331 90.9043 501.313 94.5273C503.296 98.1504 504.287 102.184 504.287 106.627C504.287 111.139 503.296 115.309 501.313 119.137C499.331 122.965 496.323 126.041 492.29 128.365C491.904 128.587 491.509 128.799 491.104 129H527.111ZM393.237 129V23H372.422H364.937H322.195H299.517H294.301L292.441 71.3535C292.1 80.1719 291.553 87.8623 290.801 94.4248C290.117 100.987 289.16 106.559 287.93 111.139C286.768 115.719 285.264 119.479 283.418 122.418C281.572 125.289 279.351 127.442 276.753 128.878C276.68 128.919 276.607 128.96 276.534 129H310.753C313.137 123.199 315.032 116.254 316.436 108.165C317.871 99.8936 318.862 90.2549 319.409 79.249L321.999 26.9541H364.937V129H393.237ZM241.389 129C244.277 124.427 246.665 119.327 248.555 113.702C251.562 104.679 253.066 94.5273 253.066 83.248V75.5576C253.066 64.21 251.528 54.0586 248.452 45.1035C245.565 36.5074 241.481 29.1396 236.2 23H144.33C139.11 29.1396 135.023 36.5074 132.07 45.1035C128.994 54.0586 127.456 64.21 127.456 75.5576V83.248C127.456 94.5273 128.994 104.679 132.07 113.702C134.003 119.327 136.434 124.427 139.364 129H173.9C170.492 126.885 167.52 124.041 164.985 120.47C162.046 116.163 159.79 110.899 158.218 104.679C156.714 98.458 155.962 91.3145 155.962 83.248V75.3525C155.962 67.2178 156.714 60.0742 158.218 53.9219C159.79 47.7012 162.046 42.4717 164.985 38.2334C167.925 33.9951 171.479 30.8164 175.649 28.6973C179.888 26.5098 184.741 25.416 190.21 25.416C195.61 25.416 200.464 26.5098 204.771 28.6973C209.077 30.8164 212.7 33.9951 215.64 38.2334C218.579 42.4717 220.801 47.7012 222.305 53.9219C223.809 60.0742 224.561 67.2178 224.561 75.3525V83.248C224.561 91.3145 223.809 98.458 222.305 104.679C220.801 110.899 218.579 116.163 215.64 120.47C213.22 124.041 210.315 126.885 206.925 129H241.389Z" fill="white"/>
<path fill-rule="evenodd" clip-rule="evenodd" d="M96.3867 24.3018V2.05078H28.3008H0V46.3477H28.0957H28.3008V24.3018H96.3867ZM249.672 46.3477C249.297 45.0246 248.89 43.7258 248.452 42.4512C245.444 33.4961 241.138 25.874 235.532 19.585C229.995 13.2275 223.398 8.37402 215.742 5.02441C208.086 1.6748 199.575 0 190.21 0C180.981 0 172.505 1.6748 164.78 5.02441C157.124 8.37402 150.527 13.2275 144.99 19.585C139.453 25.874 135.146 33.4961 132.07 42.4512C131.632 43.7258 131.226 45.0246 130.85 46.3477H159.675C161.087 42.239 162.857 38.6502 164.985 35.5811C167.925 31.3428 171.479 28.1641 175.649 26.0449C179.888 23.8574 184.741 22.7637 190.21 22.7637C195.61 22.7637 200.464 23.8574 204.771 26.0449C209.077 28.1641 212.7 31.3428 215.64 35.5811C217.768 38.6502 219.52 42.239 220.896 46.3477H249.672ZM320.907 46.3477H293.301L295.005 2.05078H299.517H323.101H364.937H372.422H393.237V46.3477H364.937V24.3018H321.999L320.907 46.3477ZM450.146 46.3477H421.846V2.05078H450.146V46.3477Z" fill="white"/>
<path fill-rule="evenodd" clip-rule="evenodd" d="M0 133V181H28.0957H55.166C63.8477 181 71.6064 179.872 78.4424 177.616C85.2783 175.292 91.0889 172.045 95.874 167.875C100.659 163.637 104.282 158.646 106.743 152.904C109.272 147.162 110.537 140.805 110.537 133.832C110.537 133.554 110.535 133.276 110.531 133H82.4348C82.4392 133.208 82.4414 133.417 82.4414 133.627C82.4414 138.139 81.4502 142.309 79.4678 146.137C77.4854 149.965 74.4775 153.041 70.4443 155.365C66.4111 157.689 61.3184 158.852 55.166 158.852H28.3008V133H28.0957H0ZM129.881 133C130.494 135.653 131.224 138.22 132.07 140.702C135.146 149.657 139.487 157.279 145.093 163.568C150.698 169.857 157.329 174.677 164.985 178.026C172.71 181.376 181.187 183.051 190.415 183.051C199.78 183.051 208.291 181.376 215.947 178.026C223.604 174.677 230.2 169.857 235.737 163.568C241.274 157.279 245.547 149.657 248.555 140.702C249.382 138.22 250.096 135.653 250.695 133H221.971C220.479 138.648 218.369 143.471 215.64 147.47C212.769 151.708 209.214 154.921 204.976 157.108C200.737 159.296 195.884 160.39 190.415 160.39C184.946 160.39 180.093 159.296 175.854 157.108C171.616 154.921 167.993 151.708 164.985 147.47C162.256 143.471 160.117 138.648 158.566 133H129.881ZM289.114 133C288.753 134.833 288.358 136.546 287.93 138.139C286.768 142.719 285.264 146.479 283.418 149.418C281.572 152.289 279.351 154.442 276.753 155.878C274.224 157.313 271.216 158.168 267.729 158.441L263.73 158.852V181H270.806C277.437 181 283.247 180.18 288.237 178.539C293.296 176.83 297.671 174.164 301.362 170.541C305.054 166.918 308.13 162.201 310.591 156.391C313.052 150.512 315 143.437 316.436 135.165C316.559 134.453 316.679 133.732 316.796 133H289.114ZM364.937 133V181H393.237V133H364.937ZM421.846 133V181H477.012C485.693 181 493.452 179.872 500.288 177.616C507.124 175.292 512.935 172.045 517.72 167.875C522.505 163.637 526.128 158.646 528.589 152.904C531.118 147.162 532.383 140.805 532.383 133.832C532.383 133.554 532.381 133.276 532.377 133H504.28C504.285 133.208 504.287 133.417 504.287 133.627C504.287 138.139 503.296 142.309 501.313 146.137C499.331 149.965 496.323 153.041 492.29 155.365C488.257 157.689 483.164 158.852 477.012 158.852H450.146V133H421.846Z" fill="white"/>
</svg>
