<svg viewBox="0 0 563 270" fill="none" xmlns="http://www.w3.org/2000/svg">
<path fill-rule="evenodd" clip-rule="evenodd" d="M89.8078 32.4502C87.853 29.7813 85.3472 27.6462 82.2903 26.0449C78.052 23.7207 72.4123 22.5586 65.3713 22.5586C59.9026 22.5586 55.0832 23.584 50.9133 25.6348C47.66 27.2614 44.8367 29.5332 42.4435 32.4502H12C14.3724 27.5852 17.2264 23.2284 20.5618 19.3799C25.9621 13.1592 32.4221 8.37402 39.9416 5.02441C47.5295 1.6748 56.0061 0 65.3713 0C77.5393 0 87.8274 2.25586 96.2356 6.76758C104.644 11.2109 111.172 17.3291 115.821 25.1221C117.215 27.4602 118.444 29.9029 119.506 32.4502H89.8078ZM357.915 32.4502H329.717V2.15332H349.302H357.915H428.36V24.4043H357.915V32.4502ZM544.763 32.4502L562.891 2.15332H530.489L513.443 32.4502H544.763ZM487.695 32.4502H456.331L438.203 2.15332H470.708L487.695 32.4502ZM301.006 32.4502H277.444H275.778H253.22L264.195 2.15332H277.012H288.701H301.006V32.4502ZM193.678 32.4502L182.676 2.15332H169.859H158.272H145.967V32.4502H169.508H171.122H193.678Z" fill="white"/>
<path fill-rule="evenodd" clip-rule="evenodd" d="M11.3809 126C8.51293 130.556 6.15484 135.651 4.30664 141.283C1.43555 150.033 0 159.843 0 170.712V182.094C0 188.799 0.533339 195.101 1.60002 201H30.0607C29.0241 195.36 28.5059 189.058 28.5059 182.094V170.507C28.5059 162.577 29.1895 155.604 30.5566 149.589C31.9238 143.505 33.9746 138.446 36.709 134.413C39.1022 130.823 42.0191 128.019 45.4597 126H11.3809ZM79.0818 126C83.0173 128.241 85.9829 131.421 87.9785 135.541C90.166 139.916 91.5332 145.248 92.0801 151.537H120.278C119.375 141.99 116.828 133.478 112.638 126H79.0818ZM142.017 126V201H170.05L167.376 136.903L191.148 201H214.784L187.549 126H142.017ZM251.443 126L224.276 201H247.856L271.623 137.035L269.019 201H297.056V126H251.443ZM325.767 126V201H353.965V184.965H414.36V163.329H353.965V126H325.767ZM448.791 126L478.55 175.736L463.302 201H494.198L496.597 196.757L499.003 201H529.891L514.644 175.736L544.403 126H512.868L496.597 154.921L480.381 126H448.791Z" fill="white"/>
<path fill-rule="evenodd" clip-rule="evenodd" d="M0 217C0.662372 220.663 1.5304 224.17 2.60409 227.522C5.40682 236.204 9.44002 243.655 14.7037 249.876C20.0357 256.028 26.4273 260.779 33.8785 264.129C41.398 267.41 49.8404 269.051 59.2057 269.051C71.3736 269.051 81.7301 266.863 90.275 262.488C98.8199 258.113 105.485 252.098 110.27 244.441C115.055 236.717 117.824 227.864 118.576 217.884H90.3775C89.7623 224.173 88.2926 229.437 85.9683 233.675C83.7125 237.913 80.3971 241.126 76.0221 243.313C71.7154 245.501 66.1099 246.595 59.2057 246.595C53.5318 246.595 48.6441 245.501 44.5426 243.313C40.441 241.126 37.0914 237.947 34.4937 233.777C31.8961 229.607 29.982 224.515 28.7515 218.499C28.6504 218.005 28.5535 217.505 28.4607 217H0ZM140.417 217V267H168.615V220.96L168.45 217H140.417ZM189.548 217L208.092 267H227.677L246.256 217H222.676L217.936 230.086L213.184 217H189.548ZM267.419 217L267.257 220.96V267H295.456V217H267.419ZM324.167 217V267H343.752H352.365H423.117V244.852H352.365V217H324.167ZM461.702 217L431.525 267H464.337L492.598 217H461.702ZM497.403 217L525.758 267H558.468L528.291 217H497.403Z" fill="white"/>
<path fill-rule="evenodd" clip-rule="evenodd" d="M170.05 133.45H142.017V34.1533H154.321H165.908H178.726L214.784 133.45H191.148L167.376 69.3536L170.05 133.45ZM297.056 133.45H269.019L271.623 69.4848L247.856 133.45H224.276L260.244 34.1533H273.062H284.751H297.056V133.45ZM353.965 133.45H325.767V34.1533H345.352H353.965H424.409V56.4043H353.965V95.7793H414.36V117.415H353.965V133.45ZM494.198 133.45H463.302L478.55 108.187L434.253 34.1533H466.758L496.597 87.3711L526.538 34.1533H558.94L514.644 108.187L529.891 133.45H499.003L496.597 129.207L494.198 133.45ZM1.60002 133.45C0.533339 127.551 0 121.249 0 114.544V103.162C0 92.293 1.43555 82.4834 4.30664 73.7334C7.17773 64.9834 11.2793 57.5322 16.6113 51.3799C22.0117 45.1592 28.4717 40.374 35.9912 37.0244C43.5791 33.6748 52.0557 32 61.4209 32C73.5889 32 83.877 34.2559 92.2852 38.7676C100.693 43.2109 107.222 49.3291 111.87 57.1221C116.519 64.915 119.321 73.8701 120.278 83.9873H92.0801C91.5332 77.6982 90.166 72.3662 87.9785 67.9912C85.8594 63.6162 82.6465 60.3008 78.3398 58.0449C74.1016 55.7207 68.4619 54.5586 61.4209 54.5586C55.9521 54.5586 51.1328 55.584 46.9629 57.6348C42.8613 59.6855 39.4434 62.7617 36.709 66.8633C33.9746 70.8965 31.9238 75.9551 30.5566 82.0391C29.1895 88.0547 28.5059 95.0273 28.5059 102.957V114.544C28.5059 121.508 29.0241 127.81 30.0607 133.45H1.60002Z" fill="white"/>
</svg>
